PathFileType	4	(X/Y/Z)	Patient4_TMGait_0pt6_02_right_07.trc.trc
DataRate	CameraRate	NumFrames	NumMarkers	Units	OrigDataRate	OrigDataStartFrame	OrigNumFrames
80.000000000000	80.000000000000	4	33	mm	80.000000000000	106	       141
Frame#	Time	Sacral			L.Shoulder			Chest			R.Shoulder			Neck			R.ASIS			L.ASIS			R.Thigh.Superior			R.Thigh.Lateral			R.Thigh.Inferior			R.Patella			L.Thigh.Superior			L.Thigh.Lateral			L.Thigh.Inferior			L.Patella			L.Shank.Superior			L.Shank.Lateral			L.Shank.Inferior			R.Shank.Superior			R.Shank.Lateral			R.Shank.Inferior			R.Heel			R.Midfoot.Superior			R.Midfoot.Lateral			R.Toe			L.Heel			L.Midfoot.Lateral			L.Midfoot.Superior			L.Toe			L.Elbow			L.Wrist			R.Elbow			R.Wrist			
		X1	Y1	Z1	X2	Y2	Z2	X3	Y3	Z3	X4	Y4	Z4	X5	Y5	Z5	X6	Y6	Z6	X7	Y7	Z7	X8	Y8	Z8	X9	Y9	Z9	X10	Y10	Z10	X11	Y11	Z11	X12	Y12	Z12	X13	Y13	Z13	X14	Y14	Z14	X15	Y15	Z15	X16	Y16	Z16	X17	Y17	Z17	X18	Y18	Z18	X19	Y19	Z19	X20	Y20	Z20	X21	Y21	Z21	X22	Y22	Z22	X23	Y23	Z23	X24	Y24	Z24	X25	Y25	Z25	X26	Y26	Z26	X27	Y27	Z27	X28	Y28	Z28	X29	Y29	Z29	X30	Y30	Z30	X31	Y31	Z31	X32	Y32	Z32	X33	Y33	Z33	

106	9.162500000000	711.014909805066	1016.348165240424	432.246215267447	890.306203906982	1431.356864407548	220.284936136111	1000.082594731369	1367.795259647744	378.231910044244	927.407011885525	1451.446374216363	552.026916788852	884.746735872557	1499.614200330714	370.710930669947	941.770654972426	953.198075589807	536.040162850539	917.916129015005	967.317070681831	263.042274631231	1035.495507946784	804.888932748700	503.205856572388	1021.795607778068	683.087387528439	585.484107512395	1109.186612857638	654.605795607648	498.331659352356	1148.362741120022	547.301242511644	520.909498749400	944.911982723380	747.215559464672	292.651974030845	839.453404208049	640.106955262913	243.640588963170	920.005354909842	556.289960896426	301.306135988636	914.618058872450	491.244574492317	312.389512681080	892.523662910093	421.550126733620	308.719862646540	802.792809294867	301.652528143732	271.734778971806	868.827538659603	196.163821407974	341.054472575955	1088.394531833770	460.406102215740	530.594533972054	982.232229020674	394.629556089234	595.961049998411	989.513366667366	285.507052094585	545.285561182534	806.628338306820	180.516785031680	525.621716521329	985.177044935210	158.827650618874	554.294645193743	880.865382810428	132.317008077409	593.597756265240	1075.048739805622	63.763480601377	574.197723746879	754.627913538056	37.716950614859	403.538658746864	820.235864550324	34.576407032974	315.114192632277	904.552825397139	97.334926334863	332.363829049848	1030.244293431606	48.624352836679	293.599667606896	903.479133866409	1079.512349559660	97.758940090880	1094.887756858665	901.161716351144	87.676227800293	826.100355037447	1125.372581527485	683.106901068284	838.223233440122	863.774396155876	698.729612968643	
107	9.175000000000	710.319743013168	1016.046823093574	430.766786319090	891.576353650965	1431.265707845408	219.938861078464	1000.441366865621	1367.014593149454	378.260509634219	927.266180976354	1450.503874772303	551.894406916392	885.457060370998	1499.261701975312	370.552940962818	940.652855669289	952.862432373791	535.473305122148	920.433235607716	968.640827498419	261.528347040669	1034.506850242609	805.249436058430	502.473253464749	1021.480498970901	683.367487433310	584.753674883251	1108.288561313620	655.058274067581	497.115958722003	1148.927045853598	549.911252979067	519.878380207121	943.544475863874	746.349753857257	292.445158581432	837.364054481796	639.851554352151	243.033400176663	916.769955774027	555.451810943738	301.242063853264	910.791083444876	490.520506689027	312.481632713477	888.252793012173	420.955358783538	308.815612952168	797.991925699483	301.622849617210	271.248634548531	862.571954339552	195.724926410383	341.263934212183	1093.316870857378	461.413986753000	529.806354929551	991.790898776564	389.485930276173	595.775782770245	1005.312131912161	281.012051687904	544.912678989589	829.070648512968	166.006179433401	525.835094493787	1008.460243247532	153.564843500758	553.808396855210	905.965926787242	121.858462414427	593.762739052166	1103.302813875330	63.335362176192	573.717641066247	747.169169785852	37.798888198419	403.499413830846	812.772611846916	34.625065844279	315.167725994278	897.264746830263	97.081543611883	332.549430951340	1022.873836692681	48.052503222919	293.635357911718	905.898583802867	1079.688965309909	97.239365476846	1106.222281999102	911.385221505092	87.802950643910	821.740873235701	1125.303045612017	681.073352478780	822.600627180135	863.535826096127	699.060983530050	
108	9.187500000000	709.763978743092	1015.747588220401	429.256150634340	892.927512429894	1431.097136941714	219.709596076824	1000.890316100685	1366.186814154280	378.413083594297	927.201519351386	1449.571261979857	551.851012322177	886.246262862689	1498.857095249250	370.478814748830	939.601513471509	952.357719342894	534.988929156211	923.796329766567	970.377625889264	259.904833018106	1033.165979607610	804.948550654183	501.955931331365	1020.239479151110	682.942151461303	584.150588565232	1106.554700792308	654.588421545787	496.250188114075	1148.365479792514	551.763362173521	519.146659868322	942.263455431815	745.452389992804	292.192137168214	835.224632109343	639.604366007543	242.438723745173	913.459060545506	554.617733222413	301.114355062904	906.874346537072	489.793146983195	312.503234465292	883.862706021920	420.376089447761	308.860663070332	793.065504349970	301.612203092675	270.786089929904	856.254523614281	195.311559550330	341.422012472323	1097.326001557690	461.980955650021	529.226228651343	1000.972181062164	383.950033308510	595.674001231155	1021.011575978492	276.612558947615	544.545644682475	852.407755321749	151.597593829015	525.743090965473	1032.063369734968	148.815389852868	553.243439994391	931.734752190621	111.774357261434	593.668380583239	1131.757815974998	63.903283582245	573.200445826252	739.706658161312	37.889180189932	403.447045884725	805.302617440101	34.669580751973	315.209421219157	889.961342942596	96.846926181928	332.705961148961	1015.497717562896	47.478619710017	293.660272178197	908.161073419340	1079.765363538032	96.891900490930	1116.714929343231	921.878927314929	88.311786453165	817.402851741304	1125.505800847834	679.480161566692	808.711134430019	864.082033212121	699.502911317329	
109	9.200000000000	709.377142707267	1015.448621572357	427.737453829191	894.345808889763	1430.846589989723	219.581087117145	1001.423167218196	1365.328909559142	378.675265269406	927.209910792599	1448.683361305009	551.874716031141	887.096237973098	1498.405413563632	370.465798627411	938.658822795182	951.700055913858	534.599128661902	927.961677811011	972.497828323868	258.205383181757	1031.486936418093	803.965772398584	501.690641563377	1018.056169851086	681.791366180348	583.702756992819	1104.014746922569	653.195418657663	495.777574728190	1146.677924542637	552.824206119443	518.706525124289	941.039494758005	744.517045640128	291.888966095205	832.987658661121	639.379538665669	241.866290152664	910.028269054281	553.795055995495	300.922364524323	902.823637105679	489.065971616123	312.446837360817	879.308282520055	419.825314949126	308.848338861599	787.961036693225	301.633660276738	270.358843719980	849.853501081548	194.937880842669	341.521475206253	1100.384560670986	462.124498566953	528.851791912741	1009.698784684353	378.132623788526	595.633718391630	1036.455954414702	272.449371694681	544.167055664790	876.451781753803	137.579205635009	525.311824456533	1055.753857693047	144.772692289428	552.590691066719	957.937374391356	102.298385811709	593.274370293861	1160.099956047790	65.620631817665	572.622954496330	732.233088883202	37.986507385868	403.386080712965	797.822438891859	34.709257989351	315.239396976424	882.634638269503	96.636515165238	332.828749333916	1008.108005634431	46.922432337531	293.676357365692	910.320349863474	1079.741629507047	96.706028635118	1126.344452866059	932.527925276992	89.195954206527	813.122563560423	1126.011329437322	678.352285225137	796.597671483756	865.230221366223	700.059061589262	
